<?xml version="1.0" encoding="UTF-8"?>
<svg version="1.1" xmlns="http://www.w3.org/2000/svg" width="1024" height="1024">
<path d="M0 0 C337.92 0 675.84 0 1024 0 C1024 337.92 1024 675.84 1024 1024 C686.08 1024 348.16 1024 0 1024 C0 686.08 0 348.16 0 0 Z " fill="#FEFEFE" transform="translate(0,0)"/>
<path d="M0 0 C0.71889404 0.2462915 1.43778809 0.49258301 2.1784668 0.74633789 C7.06378947 2.50257894 7.06378947 2.50257894 8.1875 4.75 C-0.25198291 5.48521227 -8.63176225 5.91244211 -17.1015625 5.99609375 C-19.43018091 6.02728857 -21.75879405 6.05887908 -24.08740234 6.09082031 C-25.28725769 6.10616821 -26.48711304 6.12151611 -27.72332764 6.1373291 C-84.19772676 6.90018313 -140.0703089 10.90061367 -194.8125 25.75 C-187.14140727 30.81374287 -179.29980414 35.3030953 -171.125 39.5 C-170.24637802 39.9518718 -170.24637802 39.9518718 -169.3500061 40.41287231 C-82.02812157 85.2441503 16.2109876 110.96598457 120.5625 138.8125 C121.64632965 139.10095795 122.7301593 139.38941589 123.84683228 139.68661499 C136.49702017 143.04755182 149.17064826 146.24930643 161.9140625 149.23828125 C164.32906996 149.81251833 166.74394813 150.38729948 169.15869141 150.96264648 C173.75000126 152.05657039 178.34830875 153.10815847 182.95458984 154.13696289 C185.03261304 154.62874088 187.11027114 155.12206505 189.1875 155.6171875 C190.13074127 155.81576859 191.07398254 156.01434967 192.04580688 156.21894836 C196.85504253 157.40529835 199.48609977 158.45833969 202.19677734 162.72705078 C202.89023789 164.05282558 203.55578052 165.39371948 204.1875 166.75 C205.10402344 168.4825 205.10402344 168.4825 206.0390625 170.25 C206.62429688 171.405 207.20953125 172.56 207.8125 173.75 C216.13409926 189.70124935 227.1557602 204.3574191 240.1875 216.75 C236.48341564 216.75 236.04304569 216.01547773 233.3125 213.625 C217.95147872 200.96284044 199.82594083 188.81854517 181.1875 181.75 C180.42192541 237.36997543 185.75853142 291.75293755 226.26171875 333.7890625 C243.95039039 351.79411688 264.77649185 362.07925624 288.1875 370.75 C288.25219482 371.52786865 288.31688965 372.3057373 288.38354492 373.10717773 C292.85176827 425.3642963 306.02305502 476.82253581 343.1875 515.75 C344.09822266 516.75546875 344.09822266 516.75546875 345.02734375 517.78125 C355.15032114 528.56767834 367.83071917 535.74639495 381.1875 541.75 C381.80206055 542.02827637 382.41662109 542.30655273 383.04980469 542.59326172 C409.82762571 554.51450015 438.34444745 556.25302085 467.1875 557.75 C464.12010433 560.28925721 461.11501417 562.49854077 457.625 564.4140625 C456.7572998 564.89109619 455.88959961 565.36812988 454.99560547 565.85961914 C454.06893066 566.35969482 453.14225586 566.85977051 452.1875 567.375 C451.21055176 567.90279053 450.23360352 568.43058105 449.22705078 568.97436523 C405.30471061 592.49181086 356.80379263 608.98673305 307.5625 616.8125 C306.76193176 616.9397345 305.96136353 617.06696899 305.13653564 617.19805908 C262.60966823 623.89705943 218.93575673 625.89700764 176.1875 619.75 C174.99592285 619.58902832 173.8043457 619.42805664 172.57666016 619.26220703 C81.41933971 606.78426218 -5.66706306 569.86716657 -103.30078125 491.015625 C-104.64890651 489.79958666 -106.00287508 488.58920804 -107.38989258 487.41772461 C-113.92795415 481.85650489 -119.93974486 475.77370679 -125.99438477 469.69848633 C-127.87079475 467.81671726 -129.75248969 465.94035262 -131.63476562 464.06445312 C-137.57312377 458.12973338 -143.40944217 452.18353317 -148.8125 445.75 C-149.78486088 444.63142186 -150.75879385 443.51420816 -151.734375 442.3984375 C-158.6841677 434.3753458 -165.37654706 426.1910179 -171.8125 417.75 C-172.23821289 417.19328613 -172.66392578 416.63657227 -173.10253906 416.06298828 C-221.61734245 352.24622365 -254.41125138 276.76082283 -270.28320312 198.34716797 C-270.78076025 195.90574143 -271.30225909 193.47061112 -271.828125 191.03515625 C-283.47055337 135.48414089 -286.16914459 75.10105463 -279.8125 18.75 C-279.72830811 17.67347168 -279.64411621 16.59694336 -279.55737305 15.48779297 C-278.71950197 7.75368826 -278.71950197 7.75368826 -276.39941406 5.1862793 C-274.43263905 3.98999626 -272.55535131 3.23837167 -270.375 2.5 C-269.5914917 2.19537842 -268.8079834 1.89075684 -268.00073242 1.5769043 C-265.29175203 0.56054989 -262.56350325 -0.35375598 -259.8125 -1.25 C-258.78189453 -1.59015137 -257.75128906 -1.93030273 -256.68945312 -2.28076172 C-235.23441112 -9.23473454 -213.6719133 -13.85898078 -191.375 -17 C-190.62058624 -17.10718353 -189.86617249 -17.21436707 -189.08889771 -17.32479858 C-126.7325368 -26.0864244 -59.64412435 -20.50247103 0 0 Z " fill="#72AA15" transform="translate(295.8125,401.25)"/>
<path d="M0 0 C3.49407089 2.85095929 6.78460882 5.83910697 10 9 C11.04800781 10.02867188 11.04800781 10.02867188 12.1171875 11.078125 C28.84298118 28.6499705 32.60865443 50.21150482 32.33984375 73.64453125 C31.9025199 87.93830704 26.99044574 103.75923063 17.59765625 114.83203125 C15.74182736 117.71904527 15.74182736 117.71904527 16.36399841 119.9876709 C18.2625032 125.23385336 20.3981589 130.26333242 22.875 135.26171875 C23.26391418 136.05758896 23.65282837 136.85345917 24.05352783 137.67344666 C25.36296259 140.34781714 26.68118563 143.01774373 28 145.6875 C28.94646879 147.61303016 29.89275168 149.5386517 30.83886719 151.46435547 C39.85147498 169.77712606 48.96893151 188.03845466 58.08813477 206.29831314 C59.2391114 208.60319509 60.38959283 210.90832373 61.54003906 213.21347046 C71.9585168 234.10414596 71.9585168 234.10414596 82.73101807 254.81362915 C86.27917098 261.49175639 89.66468734 268.24539633 93.0201416 275.02197266 C97.66584029 284.40018389 102.33947212 293.7570126 107.25 303 C107.62906494 303.72783691 108.00812988 304.45567383 108.39868164 305.20556641 C110.56137705 309.35130548 112.81812575 313.4180007 115.16796875 317.4609375 C122.77284579 330.97166952 125.41437811 342.46344115 126.4453125 357.87109375 C128.75516173 392.26372841 142.01122281 425.60304282 161.89013672 453.42871094 C162.95338977 454.93401157 163.97771944 456.46657916 165 458 C161.27307413 456.33458627 158.13828983 453.97561082 154.875 451.5625 C135.68809015 437.17525867 135.68809015 437.17525867 114 428 C113.94845571 434.75452335 113.91392079 441.50899439 113.89013672 448.26367188 C113.88020096 450.5521026 113.86664774 452.84052107 113.84912109 455.12890625 C113.71304403 473.37924131 114.16967438 491.36243274 118.125 509.25 C118.46021267 510.81071364 118.79463019 512.37159819 119.12841797 513.93261719 C119.2929245 514.70031433 119.45743103 515.46801147 119.62692261 516.25897217 C119.75003815 516.83351135 119.87315369 517.40805054 120 518 C101.950493 514.75167503 84.15052565 510.80296137 66.370224 506.31556702 C64.34076082 505.80386708 62.31064615 505.29482073 60.28039551 504.78625488 C38.34095695 499.28347566 16.51959755 493.3885062 -5.25 487.25 C-5.93783821 487.05625919 -6.62567642 486.86251839 -7.33435822 486.66290665 C-11.9177554 485.37126545 -16.49863666 484.07105939 -21.078125 482.765625 C-22.21295319 482.44331406 -23.34778137 482.12100311 -24.51699829 481.78892517 C-31.74516186 479.7135852 -38.88476317 477.43416523 -46 475 C-45.96673615 474.17631424 -45.93347229 473.35262848 -45.89920044 472.50398254 C-43.34097755 408.36738204 -46.42286483 344.82491726 -54.71868896 281.17565918 C-55.13249228 277.97530487 -55.52736058 274.77261316 -55.92578125 271.5703125 C-61.03673707 231.5835994 -68.34467322 191.48212883 -78.62963867 152.48779297 C-79.39900538 149.56318935 -80 147.04036708 -80 144 C-80.85658203 143.814375 -80.85658203 143.814375 -81.73046875 143.625 C-94.10157421 140.47813693 -104.0858721 132.89878516 -113 124 C-113.69738281 123.31421875 -114.39476562 122.6284375 -115.11328125 121.921875 C-129.89434652 106.42328229 -136.39076534 85.13181716 -136.37304688 64.05126953 C-136.07443263 51.69224396 -132.82937938 39.88914969 -127 29 C-126.52046875 28.04996094 -126.0409375 27.09992187 -125.546875 26.12109375 C-115.41592432 7.2608045 -98.17354148 -6.22898423 -78 -13 C-50.5235448 -20.94343018 -23.00942918 -17.30383902 0 0 Z " fill="#5E9E1A" transform="translate(368,17)"/>
<path d="M0 0 C8.93637451 1.54639426 17.60728828 4.00130686 26.3125 6.5 C27.07877716 6.71964417 27.84505432 6.93928833 28.634552 7.16558838 C80.49417496 22.09193469 132.79482195 42.95508085 172.484375 80.66015625 C174.96224214 83.0247606 174.96224214 83.0247606 177.62890625 85.09375 C187.92665893 93.37266814 199.69142123 108.38535242 204 121 C203.8671444 123.85941483 203.58027817 126.23198563 203 129 C202.83669189 129.81315674 202.67338379 130.62631348 202.50512695 131.46411133 C194.3056764 170.16736451 180.15317029 207.43454373 163 243 C162.53271484 243.97694824 162.06542969 244.95389648 161.58398438 245.96044922 C143.76249077 283.05640665 121.31169283 317.39094472 95 349 C94.23558594 349.95132812 93.47117187 350.90265625 92.68359375 351.8828125 C85.62365372 360.52569262 77.8040495 368.41241981 69.9375 376.3125 C69.38305206 376.87212433 68.82860413 377.43174866 68.25735474 378.0083313 C61.17385294 385.14386288 53.91701583 391.77862979 46 398 C44.79572272 398.97644516 43.5924294 399.95410659 42.390625 400.93359375 C12.00545576 425.30596641 -23.23407677 443.52062423 -63.16845703 439.79785156 C-83.93383342 437.18181888 -101.42326084 427.78602741 -117 414 C-117.68449219 413.39929688 -118.36898437 412.79859375 -119.07421875 412.1796875 C-136.26411254 396.07069981 -149.00814487 372.19077743 -153 349 C-153 347.68 -153 346.36 -153 345 C-152.40276123 344.88519287 -151.80552246 344.77038574 -151.19018555 344.65209961 C-122.39079189 339.01557998 -96.80283493 328.85693074 -74 310 C-73.35256836 309.46584473 -72.70513672 308.93168945 -72.03808594 308.38134766 C-68.52383522 305.59863922 -68.52383522 305.59863922 -66 302 C-65.34 302 -64.68 302 -64 302 C-63.74992188 301.42507813 -63.49984375 300.85015625 -63.2421875 300.2578125 C-61.82866222 297.68857472 -60.17597548 295.97105186 -58.125 293.875 C-29.19344445 262.07343414 -16.7934265 219.81744877 -13 178 C-22.38266542 179.36414639 -31.60368117 180.96953755 -40.75 183.5 C-41.48718262 183.70133545 -42.22436523 183.9026709 -42.98388672 184.11010742 C-46.35568997 185.07563757 -49.24094418 186.1221376 -52.390625 187.71875 C-53.25171875 188.1415625 -54.1128125 188.564375 -55 189 C-55.66 188.67 -56.32 188.34 -57 188 C-55.37660195 186.29115995 -53.70680947 184.62553283 -52 183 C-51.34 183 -50.68 183 -50 183 C-49.73832031 182.40574219 -49.47664062 181.81148437 -49.20703125 181.19921875 C-47.92652038 178.86611966 -46.65621906 177.58729812 -44.6875 175.8125 C-30.9067458 162.35688156 -19.93908337 144.91077349 -10.86621094 128.01342773 C-8.20241661 123.1012083 -8.20241661 123.1012083 -6 122 C-4.45465684 122.04718413 -2.91132744 122.16988162 -1.37353516 122.32958984 C-0.41138092 122.42654144 0.55077332 122.52349304 1.54208374 122.62338257 C2.58780548 122.7347757 3.63352722 122.84616882 4.7109375 122.9609375 C5.78944977 123.070961 6.86796204 123.1809845 7.97915649 123.29434204 C11.44503708 123.64899072 14.91001324 124.01173138 18.375 124.375 C21.80443251 124.72948577 25.23403214 125.08229474 28.66372681 125.43423462 C30.79882564 125.65388442 32.93374704 125.87526881 35.06845093 126.09872437 C46.67664761 127.30496787 58.13666871 128.18668462 69.80810547 128.18530273 C71.86577036 128.18749019 73.92289781 128.20573483 75.98046875 128.22460938 C93.01984268 128.2986831 112.5514356 126.66949422 126 115 C129.59337936 111.31897724 130.32179503 108.31215635 130.625 103.3125 C130.11482093 90.77446286 121.29377221 82.46850056 113 74 C111.90171875 72.82630859 111.90171875 72.82630859 110.78125 71.62890625 C81.03528575 40.49553695 37.92748356 19.88423498 0 1 C0 0.67 0 0.34 0 0 Z " fill="#167E26" transform="translate(806,471)"/>
<path d="M0 0 C5.52106635 -1.07188653 11.0186419 -1.79276465 15.99023438 1.19677734 C20.81540249 4.96689005 24.93527936 9.43972911 29 14 C29.70261963 14.76691162 29.70261963 14.76691162 30.41943359 15.54931641 C43.50378508 29.94160383 50.14595425 45.4990689 49.453125 64.92578125 C48.68694626 76.26565697 44.29198752 86.92989712 39.8203125 97.265625 C38.2695791 102.43473633 40.66159286 107.09868886 42.44140625 112.01171875 C42.94380224 113.40891624 43.44590596 114.80621885 43.94775391 116.20361328 C44.21114563 116.93388733 44.47453735 117.66416138 44.74591064 118.41656494 C59.94913886 160.69674375 70.64316953 203.69475852 78 248 C78.12848328 248.77136292 78.25696655 249.54272583 78.38934326 250.33746338 C80.10359923 260.71331201 81.53075952 271.10900655 82.72137451 281.55773926 C82.90924504 283.2044975 83.10027328 284.85089816 83.29425049 286.49694824 C86.84782397 316.78366101 87.37196921 346.98232253 87.375 377.4375 C87.37597813 378.34231487 87.37695625 379.24712975 87.37796402 380.17936325 C87.46062978 460.00063734 75.98739305 538.11143512 62.45996094 616.63671875 C52.44772675 674.78178242 42.53226178 734.94760375 50 794 C50.09651855 794.78971191 50.19303711 795.57942383 50.29248047 796.39306641 C55.3710378 836.44612198 68.83621667 879.38475253 101.76367188 905.39306641 C129.63326334 926.05526352 164.32029322 932.40934011 198.44042969 928.61767578 C232.96424587 923.45817444 264.62968799 908.30022698 292.84765625 888.1796875 C295.21495967 886.54281599 297.38339434 885.1614858 300 884 C290.58741307 895.50427291 279.93400173 905.19888472 268 914 C266.93910156 914.78246094 265.87820313 915.56492187 264.78515625 916.37109375 C244.6547346 930.72863799 223.2670053 940.20911107 199 945 C197.22109375 945.36931641 197.22109375 945.36931641 195.40625 945.74609375 C159.4689845 952.07000576 120.28055518 942.39477128 90.34960938 921.86816406 C51.17245942 893.96083482 27.87913206 849.24370464 19.87792969 802.37426758 C16.59131767 782.67206531 15.46170436 763.27230567 15.5625 743.3125 C15.56554138 742.02696228 15.56858276 740.74142456 15.57171631 739.41693115 C15.64730997 717.70273732 16.81650841 696.47292783 20 675 C20.10890564 674.2509137 20.21781128 673.50182739 20.33001709 672.7300415 C24.19737723 646.15240573 29.34501234 619.80306614 34.46826172 593.4453125 C46.400916 532.03503252 57.84867904 470.38439418 62.125 407.875 C62.20065186 406.76962891 62.27630371 405.66425781 62.35424805 404.52539062 C63.66323763 383.87737408 64.16749552 363.22788769 64.13037109 342.54101562 C64.12500191 339.00125857 64.13036635 335.46162832 64.13671875 331.921875 C64.14654686 307.74440407 63.1841748 283.75623245 60.875 259.6875 C60.7677359 258.55779785 60.6604718 257.4280957 60.54995728 256.26416016 C56.12747761 210.24625994 47.94062111 164.99084034 35.03320312 120.58886719 C34.08335081 117.28952196 33.18610953 113.98012206 32.296875 110.6640625 C28.92621406 98.71260935 24.75699628 92.51640434 15 85 C3.65212638 74.19901186 -5.23758519 58.07772429 -6.16113281 42.23608398 C-6.20700556 38.96978466 -6.23527732 35.70409448 -6.25 32.4375 C-6.270625 31.32052734 -6.29125 30.20355469 -6.3125 29.05273438 C-6.36048407 18.70616943 -4.46145533 9.34781117 0 0 Z " fill="#70AA15" transform="translate(582,0)"/>
<path d="M0 0 C3.9887571 1.51276824 7.72876169 3.33912997 11.515625 5.30078125 C12.1308905 5.61903366 12.74615601 5.93728607 13.38006592 6.2651825 C14.67826594 6.93732158 15.97588369 7.61058634 17.27294922 8.28491211 C19.22871947 9.30143928 21.18645444 10.31409616 23.14453125 11.32617188 C29.81991403 14.78331681 36.46201891 18.28743936 43 22 C42.90912109 22.92945435 42.90912109 22.92945435 42.81640625 23.87768555 C38.92077731 66.20893814 38.84494601 109.91273891 45 152 C45.1654834 153.19286621 45.3309668 154.38573242 45.50146484 155.61474609 C54.82335076 222.33132203 79.42482687 287.65030624 118 343 C118.62817627 343.90419678 118.62817627 343.90419678 119.26904297 344.82666016 C124.57834937 352.43981554 130.11148566 359.82228429 136 367 C136.68449219 367.85851562 137.36898437 368.71703125 138.07421875 369.6015625 C143.59035802 376.47445416 149.4638019 382.93487586 155.48144531 389.36376953 C156.9795475 390.97796259 158.45770268 392.60807697 159.9296875 394.24609375 C164.31663202 399.12198331 168.70005963 403.83539904 173.7421875 408.05078125 C175.55148272 409.61278526 177.28273886 411.20356387 179.0078125 412.85546875 C187.16800013 420.65610332 195.70653508 427.63447066 204.78027344 434.34521484 C206.97902388 435.9843625 209.15114975 437.65399045 211.3203125 439.33203125 C273.42780273 486.91013285 353.74791392 516.65558547 431.1484375 524.5078125 C434 525 434 525 436 527 C435.625 529.625 435.625 529.625 435 532 C426.90541456 532.23076669 419.02555029 531.3649562 411 530.375 C409.92554123 530.2434552 409.92554123 530.2434552 408.82937622 530.10925293 C319.25217262 519.02082166 232.17917894 486.46249424 164 426 C162.62538166 424.81205822 161.25044262 423.6244873 159.875 422.4375 C147.32722913 411.37530031 134.62900491 399.99206675 123.8359375 387.171875 C122.32484635 385.38428632 120.78730053 383.63443171 119.2265625 381.890625 C110.80835559 372.42813749 103.15023473 362.49500734 95.67041016 352.27880859 C94.24217199 350.33037611 92.80178628 348.3920382 91.35546875 346.45703125 C38.55754467 274.57130046 9.99546855 186.195826 0 82 C-0.05367737 81.31798523 -0.10735474 80.63597046 -0.16265869 79.93328857 C-1.07156591 68.00815251 -1.15461785 56.09907198 -1.13037109 44.14355469 C-1.1250077 41.00450819 -1.13035252 37.86560471 -1.13671875 34.7265625 C-1.1401447 23.1139613 -0.86350378 11.58157229 0 0 Z " fill="#FDFEFC" transform="translate(70,462)"/>
<path d="M0 0 C1.16760521 52.99630326 -25.18059537 104.68034963 -61.2265625 142.390625 C-68.6382249 150.03895182 -76.29600384 156.86373325 -85 163 C-85.57298828 163.40669922 -86.14597656 163.81339844 -86.73632812 164.23242188 C-104.88825491 177.00452404 -124.70156559 187.52030972 -145.625 194.9375 C-146.86902588 195.37968872 -146.86902588 195.37968872 -148.13818359 195.83081055 C-152.77009748 197.41575973 -157.12338967 198.37055727 -162 199 C-162.87484784 164.15413765 -157.60532223 132.13441112 -137 103 C-136.5879834 102.41428223 -136.1759668 101.82856445 -135.75146484 101.22509766 C-128.29400353 90.7099438 -120.09028383 81.13444926 -111 72 C-110.4838916 71.47986328 -109.9677832 70.95972656 -109.43603516 70.42382812 C-95.64145787 56.70506973 -79.38455065 45.40399599 -63 35 C-61.81519043 34.24638184 -61.81519043 34.24638184 -60.60644531 33.47753906 C-49.42164473 26.39397384 -38.09934055 19.65058986 -26.46142578 13.34033203 C-23.65334914 11.81123654 -20.85590606 10.2635396 -18.05859375 8.71484375 C-16.03922304 7.60127132 -14.01969388 6.48798617 -12 5.375 C-11.03715088 4.84124756 -10.07430176 4.30749512 -9.08227539 3.75756836 C-8.18887451 3.26780518 -7.29547363 2.77804199 -6.375 2.2734375 C-5.57835937 1.83435059 -4.78171875 1.39526367 -3.9609375 0.94287109 C-2 0 -2 0 0 0 Z " fill="#73AE14" transform="translate(809,504)"/>
<path d="M0 0 C2.21653948 52.58313658 -19.23421647 99.49683652 -54 138 C-79.55049513 165.43033636 -113.18185688 184.15866676 -148 197 C-152.42319213 192.57680787 -151.2317627 183.67920545 -151.25 177.75 C-151.23585535 143.86224489 -139.02822137 113.30274202 -118 87 C-117.20335937 85.99839844 -116.40671875 84.99679687 -115.5859375 83.96484375 C-104.81291251 70.70669189 -92.57408122 58.38017976 -79 48 C-77.9996875 47.2059375 -76.999375 46.411875 -75.96875 45.59375 C-59.30636453 32.42632671 -41.10707977 21.72467514 -22.53515625 11.5078125 C-19.4664469 9.81806756 -16.4134122 8.1039974 -13.37109375 6.3671875 C-12.63560303 5.94824219 -11.9001123 5.52929688 -11.14233398 5.09765625 C-9.74279386 4.29892156 -8.34508146 3.49697344 -6.94946289 2.69140625 C-2.22176314 0 -2.22176314 0 0 0 Z " fill="#73AE15" transform="translate(825,361)"/>
<path d="M0 0 C4.54445461 1.38512043 8.66533731 3.23338361 12.84765625 5.45703125 C13.49283707 5.79630646 14.13801788 6.13558167 14.80274963 6.48513794 C16.89274414 7.58795887 18.97810362 8.69913777 21.0625 9.8125 C21.77597595 10.19238068 22.4894519 10.57226135 23.22454834 10.96365356 C65.3896 33.45865484 107.7381713 61.60912977 123.02734375 109.33984375 C125.39053363 118.23265067 126.35919285 126.47141479 126.3125 135.6875 C126.30512817 137.40779419 126.30512817 137.40779419 126.29760742 139.1628418 C126.12729645 151.52043115 125.23878261 169.76121739 116 179 C103.04384851 172.85011983 90.75995209 166.22407766 79 158 C78.32485352 157.52836426 77.64970703 157.05672852 76.95410156 156.57080078 C58.228689 143.33572579 41.29020354 127.47566025 29 108 C28.62488281 107.40622559 28.24976563 106.81245117 27.86328125 106.20068359 C8.9166477 75.65489511 -0.42401915 35.79428346 0 0 Z " fill="#167D26" transform="translate(500,347)"/>
<path d="M0 0 C41.46259987 15.95724267 87.56573825 60.99711881 105.80859375 100.83984375 C107.3952811 104.49701706 108.72367906 108.22288771 110 112 C110.4125 113.16917969 110.825 114.33835937 111.25 115.54296875 C118.06959462 138.01448018 115.51373897 163.57260445 104.64257812 184.22924805 C103.77537028 185.82698424 102.88981672 187.414744 102 189 C82.35280155 179.69955103 65.57521964 167.06415774 50 152 C49.4328125 151.45617676 48.865625 150.91235352 48.28125 150.35205078 C19.37140919 122.13470891 5.13546351 82.45803985 1 43 C0.85751831 41.78582397 0.85751831 41.78582397 0.7121582 40.54711914 C-0.18772044 32.14220526 -0.1124597 23.75191849 -0.0625 15.3125 C-0.05747144 13.82096506 -0.05291095 12.32942846 -0.04882812 10.83789062 C-0.03793804 7.22522538 -0.02074936 3.61262368 0 0 Z " fill="#167D26" transform="translate(490,459)"/>
<path d="M0 0 C4.75892995 4.75892995 3.24869889 14.9448021 3.25097656 21.38720703 C2.80611656 60.68991421 -13.34801894 99.31143025 -40 128 C-40.89589844 128.96679688 -41.79179688 129.93359375 -42.71484375 130.9296875 C-61.49443756 150.39869371 -86.5951098 166.69999555 -112 176 C-112.66 176 -113.32 176 -114 176 C-116.08113488 168.29731352 -116.34877307 161.0197759 -116.3125 153.0625 C-116.30686035 151.77504883 -116.3012207 150.48759766 -116.29541016 149.16113281 C-115.78790596 109.11352407 -96.05186059 76.54977969 -68.18334961 48.95092773 C-63.04438619 43.95193336 -57.71847598 39.33128439 -52 35 C-51.43555176 34.57025879 -50.87110352 34.14051758 -50.28955078 33.69775391 C-36.84845762 23.53792101 -22.66953836 14.43036783 -8.5625 5.234375 C-7.92994797 4.82143188 -7.29739594 4.40848877 -6.64567566 3.98303223 C-2.23891184 1.11945592 -2.23891184 1.11945592 0 0 Z " fill="#73AE15" transform="translate(804,247)"/>
<path d="M0 0 C0.31737133 7.2995405 -0.7889989 13.57331667 -2.625 20.625 C-2.89715332 21.68460938 -3.16930664 22.74421875 -3.44970703 23.8359375 C-5.66817087 32.22390454 -8.35162156 40.11137543 -12 48 C-12.28568848 48.62213379 -12.57137695 49.24426758 -12.86572266 49.88525391 C-22.10108104 69.77794644 -33.96425414 88.01090069 -49 104 C-49.5878125 104.66386719 -50.175625 105.32773437 -50.78125 106.01171875 C-67.93496267 124.55728969 -98.22497004 139.59047046 -123.47338867 141.15307617 C-125.86100375 141.19439431 -128.2376877 141.17663903 -130.625 141.125 C-131.43839844 141.11597656 -132.25179687 141.10695313 -133.08984375 141.09765625 C-135.06002841 141.07447761 -137.03005765 141.03862632 -139 141 C-140.1395176 108.61870806 -129.86925558 82.80955592 -108.0703125 58.71484375 C-93.85528785 43.55368175 -76.21138997 32.70235501 -58 23 C-56.68757324 22.29447998 -56.68757324 22.29447998 -55.34863281 21.57470703 C-40.72403683 13.77797266 -25.60185613 7.56908927 -10 2 C-8.46859375 1.44324585 -8.46859375 1.44324585 -6.90625 0.87524414 C-4 0 -4 0 0 0 Z " fill="#73AE14" transform="translate(779,663)"/>
<path d="M0 0 C2.02139807 0.11550846 4.04211906 0.24288941 6.0625 0.375 C7.18785156 0.44460937 8.31320312 0.51421875 9.47265625 0.5859375 C13.34605926 1.04062268 16.38947137 1.4795087 20 3 C21.36874387 5.7411077 22.08882137 7.75966213 22.7734375 10.6796875 C22.983172 11.46617676 23.19290649 12.25266602 23.40899658 13.06298828 C24.09373811 15.66033176 24.7345234 18.26641992 25.375 20.875 C25.84570064 22.70131521 26.3188783 24.52699366 26.79443359 26.35205078 C28.00103319 31.01146645 29.17164525 35.67916955 30.3347168 40.34960938 C31.32694785 44.30251226 32.35979778 48.24452774 33.390625 52.1875 C52.70080924 126.54656093 65.24372724 202.51364521 72 279 C72.11327637 280.26682617 72.22655273 281.53365234 72.34326172 282.83886719 C74.05392843 302.19399351 75.27249486 321.56203336 75 341 C69.62699875 340.43246606 64.71063977 339.49705103 59.5078125 337.96875 C58.83579803 337.77277222 58.16378357 337.57679443 57.47140503 337.37487793 C56.06733394 336.96421345 54.66410713 336.5506519 53.26171875 336.13427734 C51.11119634 335.49590243 48.95823736 334.86635923 46.8046875 334.23828125 C36.33375266 331.16687633 36.33375266 331.16687633 34 330 C34.03029297 329.26104492 34.06058594 328.52208984 34.09179688 327.76074219 C36.62898107 263.53094847 33.58947951 199.91962851 25.28131104 136.17565918 C24.86750772 132.97530487 24.47263942 129.77261316 24.07421875 126.5703125 C18.86225138 85.79331283 11.2279962 45.04441959 0.8125 5.26953125 C0 2 0 2 0 0 Z " fill="#91C319" transform="translate(288,162)"/>
<path d="M0 0 C4.49487728 1.31564503 8.00310169 3.08202187 11.89453125 5.67578125 C12.71196556 6.21798813 12.71196556 6.21798813 13.5459137 6.77114868 C15.30694549 7.94360689 17.06016341 9.12709233 18.8125 10.3125 C19.41370667 10.71638947 20.01491333 11.12027893 20.63433838 11.53640747 C30.72210175 18.31711726 40.538046 25.36326057 50 33 C50.55719727 33.4429541 51.11439453 33.8859082 51.68847656 34.34228516 C79.9724809 56.91363152 102.56151686 84.19757729 107 121 C108.30510308 134.54044441 105.11795535 149.88523694 99 162 C97 163 97 163 95.09912109 162.43017578 C94.33164551 162.1051709 93.56416992 161.78016602 92.7734375 161.4453125 C91.91427734 161.08252197 91.05511719 160.71973145 90.16992188 160.34594727 C89.24759766 159.94303467 88.32527344 159.54012207 87.375 159.125 C85.95670898 158.50806274 85.95670898 158.50806274 84.50976562 157.87866211 C51.12651992 143.09457279 25.57240258 119.08507648 12.21875 84.5625 C2.31798261 57.19320756 -0.64636449 28.91072357 0 0 Z " fill="#157D26" transform="translate(486,598)"/>
<path d="M0 0 C6.02871036 1.20583019 11.72641978 2.80588778 17.48828125 4.94140625 C18.26526367 5.22493958 19.04224609 5.5084729 19.84277344 5.80059814 C22.3354909 6.71381067 24.82433529 7.63696036 27.3125 8.5625 C28.58847549 9.03494644 28.58847549 9.03494644 29.89022827 9.51693726 C42.49300089 14.19174485 54.9503848 19.01592903 67 25 C67.7336377 25.35868164 68.46727539 25.71736328 69.22314453 26.08691406 C97.8012436 40.16815671 121.86400496 61.49238659 133 92 C136.27480219 102.11978088 137.16320505 111.65446562 137.125 122.25 C137.12886719 123.33796875 137.13273438 124.4259375 137.13671875 125.546875 C137.13478516 127.10921875 137.13478516 127.10921875 137.1328125 128.703125 C137.13168457 129.64833008 137.13055664 130.59353516 137.12939453 131.56738281 C137 134 137 134 136 137 C129.21707438 136.4213618 123.18482168 134.67933566 116.75 132.5 C115.170979 131.96596558 115.170979 131.96596558 113.56005859 131.42114258 C71.09895706 116.73734492 33.90759488 89.20895953 13.83618164 48.25805664 C7.10178155 33.96656388 -0.78976591 16.11122463 0 0 Z " fill="#167D26" transform="translate(499,238)"/>
<path d="M0 0 C4.82131709 17.3911795 4.88054069 37.39608887 1 55 C0.76603516 56.06710205 0.76603516 56.06710205 0.52734375 57.15576172 C-7.76535919 93.95847022 -29.7725096 124.63092439 -61.5703125 144.953125 C-68.22002431 149.11290115 -74.70174329 153.08262298 -82 156 C-91.36752457 129.11756605 -86.43138569 98.78544923 -74.41015625 73.6796875 C-68.01929486 61.19871114 -59.72267977 50.07410193 -50 40 C-49.46246094 39.43667969 -48.92492187 38.87335938 -48.37109375 38.29296875 C-39.80449722 29.34981852 -30.92532456 21.38977078 -21 14 C-19.55658492 12.90978925 -18.11390541 11.8186041 -16.671875 10.7265625 C-2.4711988 0 -2.4711988 0 0 0 Z " fill="#73AE14" transform="translate(765,158)"/>
<path d="M0 0 C40.60349444 8.16512678 87.57549176 18.19939749 114.125 53.15625 C123.25316445 67.00063276 129.12630515 82.1992815 128 99 C122.19506564 99.1639812 116.98135648 98.66456696 111.3125 97.4375 C110.49797363 97.26186523 109.68344727 97.08623047 108.84423828 96.90527344 C82.95911128 91.04579063 59.23185395 80.28416662 39 63 C37.77023437 61.97132813 37.77023437 61.97132813 36.515625 60.921875 C19.55464957 46.27854839 2.44159957 22.9569911 0 0 Z " fill="#167D26" transform="translate(503,168)"/>
<path d="M0 0 C0.99 0.33 1.98 0.66 3 1 C4.1328125 3.94921875 4.1328125 3.94921875 5.125 7.6875 C5.45757813 8.90824219 5.79015625 10.12898438 6.1328125 11.38671875 C12.34264052 37.26100217 8.20071339 64.14743062 -5 87 C-7.95984992 91.65544832 -11.37743793 95.83894898 -15 100 C-15.44633789 100.51643066 -15.89267578 101.03286133 -16.35253906 101.56494141 C-26.36769517 113.07845597 -37.48089882 122.35929472 -50 131 C-52 130 -52 130 -53.0703125 127.203125 C-60.9377058 99.51658081 -56.37743383 70.60231439 -42.6875 45.75 C-32.57975024 28.1107389 -17.01132757 13.33659665 -1 1 C-0.67 0.67 -0.34 0.34 0 0 Z " fill="#73AE15" transform="translate(720,92)"/>
<path d="M0 0 C46.9660767 9.63274336 46.9660767 9.63274336 66 19 C67.00289062 19.48210937 68.00578125 19.96421875 69.0390625 20.4609375 C76.12976881 24.07619903 82.05135885 28.74132663 88 34 C88.63679687 34.54140625 89.27359375 35.0828125 89.9296875 35.640625 C100.21105459 45.02178022 110.33410848 61.96802905 111.11328125 76.046875 C111.12318991 77.69831869 111.06875174 79.34995829 111 81 C83.27248322 82.81819782 53.69473228 68.37748843 33 51 C32.3296875 50.48050781 31.659375 49.96101563 30.96875 49.42578125 C18.26731359 39.35123282 7.92987498 22.97293433 2 8 C1.62875 7.13632813 1.2575 6.27265625 0.875 5.3828125 C0 3 0 3 0 0 Z " fill="#157D26" transform="translate(507,105)"/>
<path d="M0 0 C12.01688543 15.88511768 18.03957898 38.25699978 15.5 57.859375 C12.2704242 78.13474973 2.57895217 98.25386574 -13 112 C-13.66 112 -14.32 112 -15 112 C-25.60327726 98.22506795 -29.59739428 79.76687733 -29.5 62.75 C-29.49427979 61.5741333 -29.48855957 60.3982666 -29.48266602 59.18676758 C-29.2834755 49.41301872 -27.79165348 40.98992668 -24 32 C-23.50371094 30.79601562 -23.00742187 29.59203125 -22.49609375 28.3515625 C-19.34401263 21.47015166 -8.44137551 0 0 0 Z " fill="#73AE14" transform="translate(669,35)"/>
<path d="M0 0 C18.01402124 3.02167424 36.19192889 9.84818886 52 19 C52.60730957 19.35030273 53.21461914 19.70060547 53.84033203 20.06152344 C73.75599477 31.75560554 86.93319308 47.04532181 93.6484375 69.1328125 C94.070176 71.37271253 94.09599391 73.47241434 94.0625 75.75 C94.05347656 76.54921875 94.04445313 77.3484375 94.03515625 78.171875 C94.02355469 78.77515625 94.01195312 79.3784375 94 80 C67.31386029 79.29435688 38.71841339 62.5428987 20.69140625 43.5703125 C10.61505415 31.58868524 2.10211765 15.65715217 0 0 Z " fill="#157D26" transform="translate(509,43)"/>
<path d="M0 0 C8.31910684 1.47206547 16.38320899 3.67610548 24.5 6 C25.78640385 6.35957 27.07286187 6.71894621 28.359375 7.078125 C30.17695312 7.59632813 30.17695312 7.59632813 32.03125 8.125 C33.13017578 8.43695313 34.22910156 8.74890625 35.36132812 9.0703125 C38 10 38 10 40 12 C39.071875 12.12375 39.071875 12.12375 38.125 12.25 C35.81562433 12.81258459 35.81562433 12.81258459 34.75 15.0625 C34.5025 15.701875 34.255 16.34125 34 17 C36.475 17.99 36.475 17.99 39 19 C36 20 36 20 34.18505859 19.33837891 C33.51297363 18.97147949 32.84088867 18.60458008 32.1484375 18.2265625 C31.38700439 17.81776855 30.62557129 17.40897461 29.84106445 16.98779297 C29.02726318 16.53807129 28.21346191 16.08834961 27.375 15.625 C25.66799806 14.70307073 23.96096613 13.78119699 22.25390625 12.859375 C21.38523926 12.38564453 20.51657227 11.91191406 19.62158203 11.42382812 C15.53720354 9.20552906 11.42409544 7.04229115 7.3125 4.875 C5.89172044 4.122786 4.4711271 3.3702201 3.05078125 2.6171875 C2.04402344 2.08351563 1.03726563 1.54984375 0 1 C0 0.67 0 0.34 0 0 Z " fill="#157721" transform="translate(806,471)"/>
<path d="M0 0 C3.36663541 3.27229886 6.39967271 6.63285895 9.3125 10.3125 C13.25981786 15.20028621 17.44977482 19.67294663 22 24 C18.23999615 24 17.62057576 23.09925526 14.8125 20.6875 C9.53673624 16.31190364 3.97386477 12.47952163 -1.72924805 8.68237305 C-6.89712051 5.20575898 -6.89712051 5.20575898 -8 3 C-4.9168649 4.19899698 -1.93720508 5.47700477 1 7 C1.33 6.34 1.66 5.68 2 5 C1.10636395 2.39068734 1.10636395 2.39068734 0 0 Z " fill="#63A112" transform="translate(514,594)"/>
<path d="M0 0 C0.66 0 1.32 0 2 0 C3.48046875 2.08984375 3.48046875 2.08984375 5.1875 4.9375 C8.46586393 10.25451041 12.06442029 15.15528941 16 20 C11.92144433 20 10.56405812 18.37185945 7.375 15.875 C2.38828517 12.02058968 -2.70084883 8.41233219 -8 5 C-7.34 4.67 -6.68 4.34 -6 4 C-4.7934375 4.495 -4.7934375 4.495 -3.5625 5 C-0.94394094 6.33657887 -0.94394094 6.33657887 2 5 C2 4.34 2 3.68 2 3 C1.34 3 0.68 3 0 3 C0 2.01 0 1.02 0 0 Z " fill="#408716" transform="translate(517,454)"/>
<path d="M0 0 C0.66 0.33 1.32 0.66 2 1 C-0.78358481 3.84137242 -3.57815727 6.67168155 -6.375 9.5 C-7.1690625 10.31082031 -7.963125 11.12164063 -8.78125 11.95703125 C-9.54179688 12.72402344 -10.30234375 13.49101563 -11.0859375 14.28125 C-11.7876709 14.99345703 -12.4894043 15.70566406 -13.21240234 16.43945312 C-15 18 -15 18 -17 18 C-17 17.01 -17 16.02 -17 15 C-17.66 14.67 -18.32 14.34 -19 14 C-18.29875 13.49210938 -17.5975 12.98421875 -16.875 12.4609375 C-11.21416422 8.35375502 -5.57781418 4.21932075 0 0 Z " fill="#6AA715" transform="translate(880,884)"/>
<path d="M0 0 C1 3 1 3 -0.21484375 5.69921875 C-0.78332031 6.68535156 -1.35179687 7.67148437 -1.9375 8.6875 C-2.78634766 10.17830078 -2.78634766 10.17830078 -3.65234375 11.69921875 C-4.09707031 12.45847656 -4.54179688 13.21773437 -5 14 C-7.25525345 12.92664408 -9.50375548 11.84192442 -11.75 10.75 C-12.38421875 10.44964844 -13.0184375 10.14929688 -13.671875 9.83984375 C-17.41687422 8.00635455 -20.24803883 6.14112739 -23 3 C-20.2992279 4.00314392 -18.01173099 4.99197353 -15.625 6.625 C-12.27764698 8.37837539 -9.72407371 8.21906316 -6 8 C-6 8.66 -6 9.32 -6 10 C-5.34 10 -4.68 10 -4 10 C-3.71125 9.0925 -3.4225 8.185 -3.125 7.25 C-2.23468224 4.67797092 -1.28505587 2.38653234 0 0 Z " fill="#0F6D16" transform="translate(597,634)"/>
<path d="M0 0 C0.33 0.99 0.66 1.98 1 3 C1.66 3.33 2.32 3.66 3 4 C2.67 4.66 2.34 5.32 2 6 C1.34 6 0.68 6 0 6 C-0.01981934 6.64549805 -0.03963867 7.29099609 -0.06005859 7.95605469 C-0.15546328 10.88777221 -0.26507971 13.81879232 -0.375 16.75 C-0.4059375 17.76578125 -0.436875 18.7815625 -0.46875 19.828125 C-0.50742188 20.8078125 -0.54609375 21.7875 -0.5859375 22.796875 C-0.63306885 24.14797363 -0.63306885 24.14797363 -0.68115234 25.52636719 C-1.01137256 28.08822875 -1.70951673 29.78127437 -3 32 C-3.34207192 20.82565057 -2.93465298 10.86520329 0 0 Z " fill="#69A222" transform="translate(235,60)"/>
<path d="M0 0 C0.598125 0.556875 1.19625 1.11375 1.8125 1.6875 C6.21439438 4.88103122 11.01555328 6.87004378 16 9 C16 9.66 16 10.32 16 11 C17.051875 11.37125 17.051875 11.37125 18.125 11.75 C21.37002459 13.16088026 24.10316737 14.97895398 27 17 C26.34 17.33 25.68 17.66 25 18 C23.33935547 17.24316406 23.33935547 17.24316406 21.3671875 16.015625 C20.28050781 15.35433594 20.28050781 15.35433594 19.171875 14.6796875 C18.41390625 14.20789063 17.6559375 13.73609375 16.875 13.25 C11.36961596 9.83086675 6.14796463 7.09114443 0 5 C-0.33 6.32 -0.66 7.64 -1 9 C-0.67 6.03 -0.34 3.06 0 0 Z " fill="#3B8711" transform="translate(482,440)"/>
<path d="M0 0 C0.66 0.33 1.32 0.66 2 1 C1.55197021 1.44279297 1.10394043 1.88558594 0.64233398 2.34179688 C-1.42870096 4.39176683 -3.49560697 6.44585433 -5.5625 8.5 C-6.26697266 9.19609375 -6.97144531 9.8921875 -7.69726562 10.609375 C-11.81761564 14.71073723 -15.73658898 18.89756747 -19.47241211 23.35351562 C-21 25 -21 25 -24 27 C-22.40269265 23.18270616 -19.85570035 20.41626769 -17.0625 17.4375 C-16.58321045 16.92026367 -16.1039209 16.40302734 -15.61010742 15.87011719 C-10.54528807 10.44193598 -5.29502649 5.20285001 0 0 Z " fill="#5A9E04" transform="translate(733,420)"/>
<path d="M0 0 C0.66 0.33 1.32 0.66 2 1 C1.24074219 1.73605469 0.48148438 2.47210937 -0.30078125 3.23046875 C-1.30495521 4.2158731 -2.30884654 5.20156552 -3.3125 6.1875 C-3.81201172 6.67025391 -4.31152344 7.15300781 -4.82617188 7.65039062 C-7.78341701 10.56846695 -9.94727992 13.40773986 -12 17 C-13.19489419 18.46611214 -14.42356246 19.90547519 -15.6875 21.3125 C-16.31011719 22.00988281 -16.93273437 22.70726562 -17.57421875 23.42578125 C-18.27998047 24.20501953 -18.27998047 24.20501953 -19 25 C-19 20.94105384 -16.97323374 18.92868409 -14.5625 15.875 C-14.11600098 15.30112549 -13.66950195 14.72725098 -13.20947266 14.13598633 C-9.17671847 9.04351475 -4.74549309 4.43600441 0 0 Z " fill="#5FA109" transform="translate(677,716)"/>
<path d="M0 0 C4.56454251 0.54339792 7.9728176 1.79463821 12 4 C12 4.33 12 4.66 12 5 C4.74 5 -2.52 5 -10 5 C-10 4.67 -10 4.34 -10 4 C-6.7 4 -3.4 4 0 4 C0 2.68 0 1.36 0 0 Z " fill="#61A10D" transform="translate(292,401)"/>
<path d="M0 0 C6.82423338 1.23416987 13.39367844 2.8915995 20 5 C18.68 5.33 17.36 5.66 16 6 C16 6.66 16 7.32 16 8 C10.31497465 6.35433477 5.23318364 3.70967216 0 1 C0 0.67 0 0.34 0 0 Z " fill="#136D17" transform="translate(806,471)"/>
<path d="M0 0 C2 3.75 2 3.75 2 6 C-3.23471686 6.75612577 -7.77254141 7.2063366 -13 6 C-9.68629 3.79086 -8.6553979 3.77518447 -4.8125 3.875 C-3.91144531 3.89304688 -3.01039063 3.91109375 -2.08203125 3.9296875 C-1.39496094 3.95289063 -0.70789063 3.97609375 0 4 C0 2.68 0 1.36 0 0 Z " fill="#207F2C" transform="translate(615,179)"/>
<path d="M0 0 C0.66 0.33 1.32 0.66 2 1 C-2.29 5.29 -6.58 9.58 -11 14 C-11.66 13.67 -12.32 13.34 -13 13 C-9.38265713 7.8595654 -4.95949237 3.82589412 0 0 Z " fill="#61A014" transform="translate(880,884)"/>
<path d="M0 0 C-2.58232914 0.98188561 -5.16578683 1.96059589 -7.75 2.9375 C-8.84441406 3.35418945 -8.84441406 3.35418945 -9.9609375 3.77929688 C-10.66992188 4.04677734 -11.37890625 4.31425781 -12.109375 4.58984375 C-12.75874023 4.83597412 -13.40810547 5.08210449 -14.07714844 5.33569336 C-16.032576 6.01125435 -17.98665757 6.52800046 -20 7 C-16.14681806 1.34063903 -16.14681806 1.34063903 -13.02734375 0.4140625 C-11.02522499 0.19701037 -9.01157043 0.09578907 -7 0 C-6.236875 -0.20625 -5.47375 -0.4125 -4.6875 -0.625 C-3 -1 -3 -1 0 0 Z " fill="#1A701E" transform="translate(769,653)"/>
<path d="M0 0 C4.98995023 0.51620175 9.26183283 1.28619485 14 3 C16.32631371 3.69364729 18.66225561 4.34543157 21 5 C21 5.33 21 5.66 21 6 C13.69303751 5.54034292 7.00242552 4.11670277 0 2 C0 1.34 0 0.68 0 0 Z " fill="#308013" transform="translate(443,523)"/>
<path d="M0 0 C0.66 0 1.32 0 2 0 C3.4453125 1.50390625 3.4453125 1.50390625 5.125 3.5625 C8.73659577 7.82798469 12.70858022 11.43310564 17 15 C12.08548341 15 9.45143273 11.24343678 6 8 C5.38769531 7.42894531 4.77539062 6.85789062 4.14453125 6.26953125 C2.71513386 4.89445775 1.35092362 3.45224289 0 2 C0 1.34 0 0.68 0 0 Z " fill="#15701B" transform="translate(545,474)"/>
<path d="M0 0 C2 1 2 1 2.8515625 3.546875 C3.10679687 4.60390625 3.36203125 5.6609375 3.625 6.75 C4.01558594 8.32007813 4.01558594 8.32007813 4.4140625 9.921875 C4.94535644 12.71293916 5.1152681 15.17069211 5 18 C4.34 17.67 3.68 17.34 3 17 C2.40234375 14.96875 2.40234375 14.96875 1.9375 12.5 C1.54135157 9.46226779 1.54135157 9.46226779 0 7 C-0.04092937 4.66702567 -0.04241723 2.33294775 0 0 Z " fill="#49901B" transform="translate(499,409)"/>
<path d="M0 0 C0.99 0 1.98 0 3 0 C3.66 2.31 4.32 4.62 5 7 C1.7 6.34 -1.6 5.68 -5 5 C-3.68 4.67 -2.36 4.34 -1 4 C-0.67 2.68 -0.34 1.36 0 0 Z " fill="#2F8012" transform="translate(483,528)"/>
<path d="M0 0 C0.33 0 0.66 0 1 0 C1.05418326 2.08304538 1.09287551 4.16649768 1.125 6.25 C1.14820312 7.41015625 1.17140625 8.5703125 1.1953125 9.765625 C1.0103949 12.82786046 0.60823023 14.44202751 -1 17 C-1.89109922 13.92748989 -2.16339724 11.13352607 -2.1875 7.9375 C-2.20167969 7.08027344 -2.21585937 6.22304688 -2.23046875 5.33984375 C-2 3 -2 3 0 0 Z " fill="#79AD24" transform="translate(112,512)"/>
<path d="M0 0 C0.66 0.33 1.32 0.66 2 1 C-6.261959 9.44646925 -6.261959 9.44646925 -11 13 C-11.66 12.67 -12.32 12.34 -13 12 C-4.738041 3.55353075 -4.738041 3.55353075 0 0 Z " fill="#62A20A" transform="translate(713,98)"/>
<path d="M0 0 C0.99 0.680625 0.99 0.680625 2 1.375 C5.65206954 3.35320433 8.95052557 4.10774292 13 5 C13 5.33 13 5.66 13 6 C2.44191344 5.22095672 2.44191344 5.22095672 -2 3 C-1.34 2.01 -0.68 1.02 0 0 Z " fill="#3A861C" transform="translate(422,516)"/>
<path d="M0 0 C0.66 0.33 1.32 0.66 2 1 C2 3 2 3 -0.375 5.625 C-3 8 -3 8 -5 8 C-5.66 9.32 -6.32 10.64 -7 12 C-7 8.19654123 -5.86213669 7.22298985 -3.5 4.3125 C-2.8503125 3.50425781 -2.200625 2.69601562 -1.53125 1.86328125 C-1.0259375 1.24839844 -0.520625 0.63351562 0 0 Z " fill="#66A30F" transform="translate(682,594)"/>
<path d="M0 0 C2.475 0.99 2.475 0.99 5 2 C4.01 2.495 4.01 2.495 3 3 C2.53101037 5.8159849 2.53101037 5.8159849 2.375 9.0625 C2.30023438 10.16722656 2.22546875 11.27195312 2.1484375 12.41015625 C2.09945313 13.26480469 2.05046875 14.11945313 2 15 C1.67 15 1.34 15 1 15 C-0.03590199 9.94997778 -0.10251672 5.12583611 0 0 Z " fill="#247627" transform="translate(500,347)"/>
<path d="M0 0 C5.65394631 -0.34615998 9.03006806 0.56574762 14 3 C14 3.33 14 3.66 14 4 C9.02906176 3.58846263 4.55491614 3.20399168 0 1 C0 0.67 0 0.34 0 0 Z " fill="#368417" transform="translate(401,513)"/>
<path d="M0 0 C0.66 0.66 1.32 1.32 2 2 C4.31765729 2.71927295 6.65095874 3.3909893 9 4 C9 4.33 9 4.66 9 5 C4.02906176 4.58846263 -0.44508386 4.20399168 -5 2 C-5 1.67 -5 1.34 -5 1 C-2.625 0.375 -2.625 0.375 0 0 Z " fill="#358514" transform="translate(376,504)"/>
<path d="M0 0 C0.66 0.33 1.32 0.66 2 1 C1.67 2.32 1.34 3.64 1 5 C-3.62 5 -8.24 5 -13 5 C-13 4.67 -13 4.34 -13 4 C-9.04 4 -5.08 4 -1 4 C-1.33 3.01 -1.66 2.02 -2 1 C-1.34 0.67 -0.68 0.34 0 0 Z " fill="#79B01E" transform="translate(291,400)"/>
<path d="M0 0 C0.33 0.66 0.66 1.32 1 2 C-2.49359465 5.59634744 -6.11098131 8.83451967 -10 12 C-8.52278578 8.54798361 -6.56205999 6.35038064 -3.875 3.75 C-3.15054688 3.04359375 -2.42609375 2.3371875 -1.6796875 1.609375 C-1.12539063 1.07828125 -0.57109375 0.5471875 0 0 Z " fill="#5CA106" transform="translate(720,193)"/>
<path d="M0 0 C1.21236328 0.01353516 1.21236328 0.01353516 2.44921875 0.02734375 C3.37154297 0.04474609 3.37154297 0.04474609 4.3125 0.0625 C1.81744038 2.55755962 0.63921112 2.42198376 -2.8125 2.6875 C-3.72257813 2.76226563 -4.63265625 2.83703125 -5.5703125 2.9140625 C-6.61832031 2.98753906 -6.61832031 2.98753906 -7.6875 3.0625 C-7.6875 2.4025 -7.6875 1.7425 -7.6875 1.0625 C-4.80538698 0.10179566 -2.98899956 -0.04331883 0 0 Z " fill="#0D7017" transform="translate(779.6875,905.9375)"/>
<path d="M0 0 C3.62613199 0.56959153 5.25517741 1.92374534 7.75 4.5625 C8.36359375 5.20316406 8.9771875 5.84382812 9.609375 6.50390625 C10.06828125 6.99761719 10.5271875 7.49132812 11 8 C7.24026115 8 6.54322371 7.03457593 3.8125 4.5625 C3.09707031 3.92441406 2.38164063 3.28632812 1.64453125 2.62890625 C1.10183594 2.09136719 0.55914063 1.55382812 0 1 C0 0.67 0 0.34 0 0 Z " fill="#6FA42A" transform="translate(525,610)"/>
<path d="M0 0 C4.455 0.99 4.455 0.99 9 2 C9 2.33 9 2.66 9 3 C7.35 3 5.7 3 4 3 C4 3.66 4 4.32 4 5 C3.01 5 2.02 5 1 5 C0.67 3.35 0.34 1.7 0 0 Z " fill="#0C6B14" transform="translate(503,168)"/>
<path d="M0 0 C0.66 0 1.32 0 2 0 C0.61811547 3.21043882 -0.92421903 5.04936365 -3.625 7.25 C-4.57246094 8.03117187 -4.57246094 8.03117187 -5.5390625 8.828125 C-6.02117188 9.21484375 -6.50328125 9.6015625 -7 10 C-5.15014033 6.06048404 -2.92434659 3.21678125 0 0 Z " fill="#63A30E" transform="translate(716,437)"/>
<path d="M0 0 C4.455 0.99 4.455 0.99 9 2 C5 4 5 4 3 4 C2.67 4.99 2.34 5.98 2 7 C0.5393715 4.35261084 0 3.10551666 0 0 Z " fill="#0D6911" transform="translate(507,105)"/>
<path d="M0 0 C1.32 0 2.64 0 4 0 C4 2.97 4 5.94 4 9 C2 6 2 6 2 3 C1.34 2.67 0.68 2.34 0 2 C0 1.34 0 0.68 0 0 Z " fill="#75AD26" transform="translate(775,663)"/>
<path d="M0 0 C-0.33 0.99 -0.66 1.98 -1 3 C-4.0625 4.1875 -4.0625 4.1875 -7 5 C-7 4.01 -7 3.02 -7 2 C-4.35261084 0.5393715 -3.10551666 0 0 0 Z " fill="#6EA420" transform="translate(300,2)"/>
<path d="M0 0 C-2.64738916 1.4606285 -3.89448334 2 -7 2 C-7 2.66 -7 3.32 -7 4 C-7.99 4.33 -8.98 4.66 -10 5 C-10 4.01 -10 3.02 -10 2 C-3.375 -1.125 -3.375 -1.125 0 0 Z " fill="#64A511" transform="translate(756,672)"/>
<path d="M0 0 C0 3.75586417 -1.14246188 5.76650772 -3 9 C-3.99 9.66 -4.98 10.32 -6 11 C-4.54955729 6.89041233 -2.48889248 3.56741255 0 0 Z " fill="#61A20C" transform="translate(710,327)"/>
<path d="M0 0 C1.32 0.33 2.64 0.66 4 1 C3.1654738 3.50357861 2.20628008 5.66785852 1 8 C0.67 5.36 0.34 2.72 0 0 Z " fill="#116C17" transform="translate(499,238)"/>
<path d="M0 0 C3.81684226 1.55500981 6.19195732 4.03595495 9 7 C4.58110387 5.64978174 2.65654657 3.73884332 0 0 Z " fill="#16711B" transform="translate(539,635)"/>
<path d="M0 0 C1.485 0.99 1.485 0.99 3 2 C3.1875 5.125 3.1875 5.125 3 8 C2.01 8.495 2.01 8.495 1 9 C0.67 6.03 0.34 3.06 0 0 Z " fill="#76AB22" transform="translate(474,623)"/>
<path d="M0 0 C0.66 0 1.32 0 2 0 C2.33 1.32 2.66 2.64 3 4 C2.01 3.67 1.02 3.34 0 3 C-0.99 4.485 -0.99 4.485 -2 6 C-2.66 6 -3.32 6 -4 6 C-2.84826645 3.53199953 -1.95216435 1.95216435 0 0 Z " fill="#64A310" transform="translate(667,35)"/>
</svg>
